<mxfile host="65bd71144e">
    <diagram name="SWITCH_CASE" id="4QhA35BXchzYvdX226VF">
        <mxGraphModel dx="1323" dy="503" grid="1" gridSize="10" guides="1" tooltips="1" connect="1" arrows="1" fold="1" page="1" pageScale="1" pageWidth="827" pageHeight="1169" math="0" shadow="0">
            <root>
                <mxCell id="GgLf4C1dMOZIiqGs4-Fa-0"/>
                <mxCell id="GgLf4C1dMOZIiqGs4-Fa-1" parent="GgLf4C1dMOZIiqGs4-Fa-0"/>
                <mxCell id="6uVahvp_VDIydZjfBVFL-4" value="" style="edgeStyle=none;html=1;" edge="1" parent="GgLf4C1dMOZIiqGs4-Fa-1" source="GgLf4C1dMOZIiqGs4-Fa-3" target="6uVahvp_VDIydZjfBVFL-2">
                    <mxGeometry relative="1" as="geometry"/>
                </mxCell>
                <mxCell id="GgLf4C1dMOZIiqGs4-Fa-3" value="Start" style="rounded=1;whiteSpace=wrap;html=1;" parent="GgLf4C1dMOZIiqGs4-Fa-1" vertex="1">
                    <mxGeometry x="120" y="20" width="120" height="60" as="geometry"/>
                </mxCell>
                <mxCell id="GgLf4C1dMOZIiqGs4-Fa-4" value="" style="edgeStyle=none;html=1;" parent="GgLf4C1dMOZIiqGs4-Fa-1" source="GgLf4C1dMOZIiqGs4-Fa-8" target="GgLf4C1dMOZIiqGs4-Fa-11" edge="1">
                    <mxGeometry relative="1" as="geometry"/>
                </mxCell>
                <mxCell id="GgLf4C1dMOZIiqGs4-Fa-5" value="Ja" style="edgeLabel;html=1;align=center;verticalAlign=middle;resizable=0;points=[];" parent="GgLf4C1dMOZIiqGs4-Fa-4" vertex="1" connectable="0">
                    <mxGeometry x="-0.2708" y="-1" relative="1" as="geometry">
                        <mxPoint as="offset"/>
                    </mxGeometry>
                </mxCell>
                <mxCell id="GgLf4C1dMOZIiqGs4-Fa-37" value="" style="edgeStyle=none;html=1;entryX=0.5;entryY=0;entryDx=0;entryDy=0;" parent="GgLf4C1dMOZIiqGs4-Fa-1" source="GgLf4C1dMOZIiqGs4-Fa-8" target="GgLf4C1dMOZIiqGs4-Fa-34" edge="1">
                    <mxGeometry relative="1" as="geometry">
                        <Array as="points">
                            <mxPoint x="320" y="320"/>
                        </Array>
                    </mxGeometry>
                </mxCell>
                <mxCell id="GgLf4C1dMOZIiqGs4-Fa-49" value="nein" style="edgeLabel;html=1;align=center;verticalAlign=middle;resizable=0;points=[];" parent="GgLf4C1dMOZIiqGs4-Fa-37" vertex="1" connectable="0">
                    <mxGeometry x="-0.5789" y="1" relative="1" as="geometry">
                        <mxPoint as="offset"/>
                    </mxGeometry>
                </mxCell>
                <mxCell id="GgLf4C1dMOZIiqGs4-Fa-8" value="0-5" style="rhombus;whiteSpace=wrap;html=1;" parent="GgLf4C1dMOZIiqGs4-Fa-1" vertex="1">
                    <mxGeometry x="140" y="280" width="80" height="80" as="geometry"/>
                </mxCell>
                <mxCell id="GgLf4C1dMOZIiqGs4-Fa-9" value="Stop" style="rounded=1;whiteSpace=wrap;html=1;" parent="GgLf4C1dMOZIiqGs4-Fa-1" vertex="1">
                    <mxGeometry x="120" y="800" width="120" height="60" as="geometry"/>
                </mxCell>
                <mxCell id="GgLf4C1dMOZIiqGs4-Fa-10" value="" style="edgeStyle=none;html=1;startArrow=none;exitDx=0;exitDy=0;" parent="GgLf4C1dMOZIiqGs4-Fa-1" source="6uVahvp_VDIydZjfBVFL-21" target="GgLf4C1dMOZIiqGs4-Fa-9" edge="1">
                    <mxGeometry relative="1" as="geometry">
                        <mxPoint x="180" y="600" as="sourcePoint"/>
                    </mxGeometry>
                </mxCell>
                <mxCell id="GgLf4C1dMOZIiqGs4-Fa-11" value="&quot;milch&quot;" style="shape=parallelogram;perimeter=parallelogramPerimeter;whiteSpace=wrap;html=1;fixedSize=1;" parent="GgLf4C1dMOZIiqGs4-Fa-1" vertex="1">
                    <mxGeometry x="120" y="400" width="120" height="40" as="geometry"/>
                </mxCell>
                <mxCell id="GgLf4C1dMOZIiqGs4-Fa-31" value="" style="edgeStyle=none;html=1;" parent="GgLf4C1dMOZIiqGs4-Fa-1" source="GgLf4C1dMOZIiqGs4-Fa-29" target="GgLf4C1dMOZIiqGs4-Fa-8" edge="1">
                    <mxGeometry relative="1" as="geometry"/>
                </mxCell>
                <mxCell id="GgLf4C1dMOZIiqGs4-Fa-29" value="&quot;age&quot; --&amp;gt; age" style="rounded=0;whiteSpace=wrap;html=1;" parent="GgLf4C1dMOZIiqGs4-Fa-1" vertex="1">
                    <mxGeometry x="120" y="200" width="120" height="40" as="geometry"/>
                </mxCell>
                <mxCell id="GgLf4C1dMOZIiqGs4-Fa-40" value="" style="edgeStyle=none;html=1;" parent="GgLf4C1dMOZIiqGs4-Fa-1" source="GgLf4C1dMOZIiqGs4-Fa-34" target="GgLf4C1dMOZIiqGs4-Fa-39" edge="1">
                    <mxGeometry relative="1" as="geometry">
                        <Array as="points">
                            <mxPoint x="480" y="400"/>
                        </Array>
                    </mxGeometry>
                </mxCell>
                <mxCell id="GgLf4C1dMOZIiqGs4-Fa-51" value="nein" style="edgeLabel;html=1;align=center;verticalAlign=middle;resizable=0;points=[];" parent="GgLf4C1dMOZIiqGs4-Fa-40" vertex="1" connectable="0">
                    <mxGeometry x="-0.5179" y="1" relative="1" as="geometry">
                        <mxPoint as="offset"/>
                    </mxGeometry>
                </mxCell>
                <mxCell id="GgLf4C1dMOZIiqGs4-Fa-43" value="" style="edgeStyle=none;html=1;" parent="GgLf4C1dMOZIiqGs4-Fa-1" source="GgLf4C1dMOZIiqGs4-Fa-34" target="GgLf4C1dMOZIiqGs4-Fa-41" edge="1">
                    <mxGeometry relative="1" as="geometry"/>
                </mxCell>
                <mxCell id="GgLf4C1dMOZIiqGs4-Fa-50" value="ja" style="edgeLabel;html=1;align=center;verticalAlign=middle;resizable=0;points=[];" parent="GgLf4C1dMOZIiqGs4-Fa-43" vertex="1" connectable="0">
                    <mxGeometry x="0.3494" relative="1" as="geometry">
                        <mxPoint y="-1" as="offset"/>
                    </mxGeometry>
                </mxCell>
                <mxCell id="GgLf4C1dMOZIiqGs4-Fa-34" value="6-12" style="rhombus;whiteSpace=wrap;html=1;" parent="GgLf4C1dMOZIiqGs4-Fa-1" vertex="1">
                    <mxGeometry x="280" y="360" width="80" height="80" as="geometry"/>
                </mxCell>
                <mxCell id="GgLf4C1dMOZIiqGs4-Fa-44" value="" style="edgeStyle=none;html=1;" parent="GgLf4C1dMOZIiqGs4-Fa-1" source="GgLf4C1dMOZIiqGs4-Fa-39" target="GgLf4C1dMOZIiqGs4-Fa-42" edge="1">
                    <mxGeometry relative="1" as="geometry"/>
                </mxCell>
                <mxCell id="GgLf4C1dMOZIiqGs4-Fa-52" value="ja" style="edgeLabel;html=1;align=center;verticalAlign=middle;resizable=0;points=[];" parent="GgLf4C1dMOZIiqGs4-Fa-44" vertex="1" connectable="0">
                    <mxGeometry x="-0.4759" relative="1" as="geometry">
                        <mxPoint y="-1" as="offset"/>
                    </mxGeometry>
                </mxCell>
                <mxCell id="6uVahvp_VDIydZjfBVFL-7" value="" style="edgeStyle=none;html=1;" edge="1" parent="GgLf4C1dMOZIiqGs4-Fa-1" source="GgLf4C1dMOZIiqGs4-Fa-39" target="6uVahvp_VDIydZjfBVFL-6">
                    <mxGeometry relative="1" as="geometry">
                        <Array as="points">
                            <mxPoint x="640" y="480"/>
                        </Array>
                    </mxGeometry>
                </mxCell>
                <mxCell id="6uVahvp_VDIydZjfBVFL-24" value="nein" style="edgeLabel;html=1;align=center;verticalAlign=middle;resizable=0;points=[];" vertex="1" connectable="0" parent="6uVahvp_VDIydZjfBVFL-7">
                    <mxGeometry x="-0.4366" y="1" relative="1" as="geometry">
                        <mxPoint x="-1" as="offset"/>
                    </mxGeometry>
                </mxCell>
                <mxCell id="GgLf4C1dMOZIiqGs4-Fa-39" value="13-17" style="rhombus;whiteSpace=wrap;html=1;" parent="GgLf4C1dMOZIiqGs4-Fa-1" vertex="1">
                    <mxGeometry x="440" y="440" width="80" height="80" as="geometry"/>
                </mxCell>
                <mxCell id="GgLf4C1dMOZIiqGs4-Fa-46" value="" style="edgeStyle=none;html=1;" parent="GgLf4C1dMOZIiqGs4-Fa-1" source="GgLf4C1dMOZIiqGs4-Fa-41" edge="1">
                    <mxGeometry relative="1" as="geometry">
                        <Array as="points">
                            <mxPoint x="320" y="640"/>
                        </Array>
                        <mxPoint x="180" y="640" as="targetPoint"/>
                    </mxGeometry>
                </mxCell>
                <mxCell id="GgLf4C1dMOZIiqGs4-Fa-41" value="&quot;saft&quot;" style="shape=parallelogram;perimeter=parallelogramPerimeter;whiteSpace=wrap;html=1;fixedSize=1;" parent="GgLf4C1dMOZIiqGs4-Fa-1" vertex="1">
                    <mxGeometry x="260" y="480" width="120" height="40" as="geometry"/>
                </mxCell>
                <mxCell id="6uVahvp_VDIydZjfBVFL-16" value="" style="edgeStyle=none;html=1;" edge="1" parent="GgLf4C1dMOZIiqGs4-Fa-1" source="GgLf4C1dMOZIiqGs4-Fa-42">
                    <mxGeometry relative="1" as="geometry">
                        <mxPoint x="180" y="680" as="targetPoint"/>
                        <Array as="points">
                            <mxPoint x="480" y="680"/>
                        </Array>
                    </mxGeometry>
                </mxCell>
                <mxCell id="GgLf4C1dMOZIiqGs4-Fa-42" value="&quot;cola&quot;" style="shape=parallelogram;perimeter=parallelogramPerimeter;whiteSpace=wrap;html=1;fixedSize=1;" parent="GgLf4C1dMOZIiqGs4-Fa-1" vertex="1">
                    <mxGeometry x="420" y="560" width="120" height="40" as="geometry"/>
                </mxCell>
                <mxCell id="GgLf4C1dMOZIiqGs4-Fa-45" value="" style="shape=waypoint;sketch=0;size=6;pointerEvents=1;points=[];fillColor=default;resizable=0;rotatable=0;perimeter=centerPerimeter;snapToPoint=1;" parent="GgLf4C1dMOZIiqGs4-Fa-1" vertex="1">
                    <mxGeometry x="160" y="650" width="40" height="40" as="geometry"/>
                </mxCell>
                <mxCell id="6uVahvp_VDIydZjfBVFL-5" value="" style="edgeStyle=none;html=1;" edge="1" parent="GgLf4C1dMOZIiqGs4-Fa-1" source="6uVahvp_VDIydZjfBVFL-2" target="GgLf4C1dMOZIiqGs4-Fa-29">
                    <mxGeometry relative="1" as="geometry"/>
                </mxCell>
                <mxCell id="6uVahvp_VDIydZjfBVFL-2" value="name / age" style="shape=parallelogram;perimeter=parallelogramPerimeter;whiteSpace=wrap;html=1;fixedSize=1;" vertex="1" parent="GgLf4C1dMOZIiqGs4-Fa-1">
                    <mxGeometry x="120" y="110" width="120" height="50" as="geometry"/>
                </mxCell>
                <mxCell id="6uVahvp_VDIydZjfBVFL-10" value="" style="edgeStyle=none;html=1;" edge="1" parent="GgLf4C1dMOZIiqGs4-Fa-1" source="6uVahvp_VDIydZjfBVFL-6" target="6uVahvp_VDIydZjfBVFL-9">
                    <mxGeometry relative="1" as="geometry">
                        <Array as="points">
                            <mxPoint x="800" y="560"/>
                        </Array>
                    </mxGeometry>
                </mxCell>
                <mxCell id="6uVahvp_VDIydZjfBVFL-25" value="nein" style="edgeLabel;html=1;align=center;verticalAlign=middle;resizable=0;points=[];" vertex="1" connectable="0" parent="6uVahvp_VDIydZjfBVFL-10">
                    <mxGeometry x="0.3053" y="1" relative="1" as="geometry">
                        <mxPoint x="-1" as="offset"/>
                    </mxGeometry>
                </mxCell>
                <mxCell id="6uVahvp_VDIydZjfBVFL-11" value="" style="edgeStyle=none;html=1;" edge="1" parent="GgLf4C1dMOZIiqGs4-Fa-1" source="6uVahvp_VDIydZjfBVFL-6" target="6uVahvp_VDIydZjfBVFL-8">
                    <mxGeometry relative="1" as="geometry"/>
                </mxCell>
                <mxCell id="6uVahvp_VDIydZjfBVFL-27" value="ja" style="edgeLabel;html=1;align=center;verticalAlign=middle;resizable=0;points=[];" vertex="1" connectable="0" parent="6uVahvp_VDIydZjfBVFL-11">
                    <mxGeometry x="-0.4267" y="-1" relative="1" as="geometry">
                        <mxPoint as="offset"/>
                    </mxGeometry>
                </mxCell>
                <mxCell id="6uVahvp_VDIydZjfBVFL-6" value="18-130" style="rhombus;whiteSpace=wrap;html=1;" vertex="1" parent="GgLf4C1dMOZIiqGs4-Fa-1">
                    <mxGeometry x="600" y="520" width="80" height="80" as="geometry"/>
                </mxCell>
                <mxCell id="6uVahvp_VDIydZjfBVFL-19" value="" style="edgeStyle=none;html=1;" edge="1" parent="GgLf4C1dMOZIiqGs4-Fa-1" source="6uVahvp_VDIydZjfBVFL-8" target="6uVahvp_VDIydZjfBVFL-18">
                    <mxGeometry relative="1" as="geometry">
                        <Array as="points">
                            <mxPoint x="640" y="720"/>
                        </Array>
                    </mxGeometry>
                </mxCell>
                <mxCell id="6uVahvp_VDIydZjfBVFL-8" value="&quot;wein&quot;" style="shape=parallelogram;perimeter=parallelogramPerimeter;whiteSpace=wrap;html=1;fixedSize=1;" vertex="1" parent="GgLf4C1dMOZIiqGs4-Fa-1">
                    <mxGeometry x="580" y="640" width="120" height="40" as="geometry"/>
                </mxCell>
                <mxCell id="6uVahvp_VDIydZjfBVFL-14" value="" style="edgeStyle=none;html=1;" edge="1" parent="GgLf4C1dMOZIiqGs4-Fa-1" source="6uVahvp_VDIydZjfBVFL-9" target="6uVahvp_VDIydZjfBVFL-12">
                    <mxGeometry relative="1" as="geometry"/>
                </mxCell>
                <mxCell id="6uVahvp_VDIydZjfBVFL-26" value="ja" style="edgeLabel;html=1;align=center;verticalAlign=middle;resizable=0;points=[];" vertex="1" connectable="0" parent="6uVahvp_VDIydZjfBVFL-14">
                    <mxGeometry x="-0.3912" y="-1" relative="1" as="geometry">
                        <mxPoint as="offset"/>
                    </mxGeometry>
                </mxCell>
                <mxCell id="6uVahvp_VDIydZjfBVFL-9" value="default" style="rhombus;whiteSpace=wrap;html=1;" vertex="1" parent="GgLf4C1dMOZIiqGs4-Fa-1">
                    <mxGeometry x="760" y="590" width="80" height="80" as="geometry"/>
                </mxCell>
                <mxCell id="6uVahvp_VDIydZjfBVFL-22" value="" style="edgeStyle=none;html=1;" edge="1" parent="GgLf4C1dMOZIiqGs4-Fa-1" source="6uVahvp_VDIydZjfBVFL-12" target="6uVahvp_VDIydZjfBVFL-21">
                    <mxGeometry relative="1" as="geometry">
                        <Array as="points">
                            <mxPoint x="800" y="760"/>
                        </Array>
                    </mxGeometry>
                </mxCell>
                <mxCell id="6uVahvp_VDIydZjfBVFL-12" value="&quot;tee&quot;" style="shape=parallelogram;perimeter=parallelogramPerimeter;whiteSpace=wrap;html=1;fixedSize=1;" vertex="1" parent="GgLf4C1dMOZIiqGs4-Fa-1">
                    <mxGeometry x="740" y="700" width="120" height="40" as="geometry"/>
                </mxCell>
                <mxCell id="6uVahvp_VDIydZjfBVFL-15" value="" style="shape=waypoint;sketch=0;size=6;pointerEvents=1;points=[];fillColor=default;resizable=0;rotatable=0;perimeter=centerPerimeter;snapToPoint=1;" vertex="1" parent="GgLf4C1dMOZIiqGs4-Fa-1">
                    <mxGeometry x="160" y="670" width="40" height="40" as="geometry"/>
                </mxCell>
                <mxCell id="6uVahvp_VDIydZjfBVFL-17" value="" style="edgeStyle=none;html=1;startArrow=none;exitX=0.5;exitY=1;exitDx=0;exitDy=0;endArrow=none;" edge="1" parent="GgLf4C1dMOZIiqGs4-Fa-1" source="GgLf4C1dMOZIiqGs4-Fa-11" target="6uVahvp_VDIydZjfBVFL-15">
                    <mxGeometry relative="1" as="geometry">
                        <mxPoint x="180" y="519.9999999999999" as="sourcePoint"/>
                        <mxPoint x="180" y="800" as="targetPoint"/>
                    </mxGeometry>
                </mxCell>
                <mxCell id="6uVahvp_VDIydZjfBVFL-18" value="" style="shape=waypoint;sketch=0;size=6;pointerEvents=1;points=[];fillColor=default;resizable=0;rotatable=0;perimeter=centerPerimeter;snapToPoint=1;" vertex="1" parent="GgLf4C1dMOZIiqGs4-Fa-1">
                    <mxGeometry x="160" y="700" width="40" height="40" as="geometry"/>
                </mxCell>
                <mxCell id="6uVahvp_VDIydZjfBVFL-20" value="" style="edgeStyle=none;html=1;startArrow=none;exitDx=0;exitDy=0;endArrow=none;" edge="1" parent="GgLf4C1dMOZIiqGs4-Fa-1" source="6uVahvp_VDIydZjfBVFL-15" target="6uVahvp_VDIydZjfBVFL-18">
                    <mxGeometry relative="1" as="geometry">
                        <mxPoint x="180" y="690" as="sourcePoint"/>
                        <mxPoint x="180" y="800" as="targetPoint"/>
                    </mxGeometry>
                </mxCell>
                <mxCell id="6uVahvp_VDIydZjfBVFL-21" value="" style="shape=waypoint;sketch=0;size=6;pointerEvents=1;points=[];fillColor=default;resizable=0;rotatable=0;perimeter=centerPerimeter;snapToPoint=1;" vertex="1" parent="GgLf4C1dMOZIiqGs4-Fa-1">
                    <mxGeometry x="160" y="740" width="40" height="40" as="geometry"/>
                </mxCell>
                <mxCell id="6uVahvp_VDIydZjfBVFL-23" value="" style="edgeStyle=none;html=1;startArrow=none;exitDx=0;exitDy=0;endArrow=none;" edge="1" parent="GgLf4C1dMOZIiqGs4-Fa-1" source="6uVahvp_VDIydZjfBVFL-18" target="6uVahvp_VDIydZjfBVFL-21">
                    <mxGeometry relative="1" as="geometry">
                        <mxPoint x="180" y="720" as="sourcePoint"/>
                        <mxPoint x="180" y="800" as="targetPoint"/>
                    </mxGeometry>
                </mxCell>
            </root>
        </mxGraphModel>
    </diagram>
</mxfile>